<mxfile host="app.diagrams.net" agent="Mozilla/5.0 (Windows NT 10.0; Win64; x64) AppleWebKit/537.36 (KHTML, like Gecko) Chrome/135.0.0.0 Safari/537.36" version="26.1.1">
  <diagram name="PÃ¡gina-1" id="6x2JqdMgmgZzUIW8UwPl">
    <mxGraphModel dx="1505" dy="813" grid="1" gridSize="10" guides="1" tooltips="1" connect="1" arrows="1" fold="1" page="1" pageScale="1" pageWidth="827" pageHeight="1169" math="0" shadow="0">
      <root>
        <mxCell id="0" />
        <mxCell id="1" parent="0" />
        <mxCell id="UxxSL7fzXN6poNYJw15S-7" value="" style="group" vertex="1" connectable="0" parent="1">
          <mxGeometry x="140" y="200" width="880" height="450" as="geometry" />
        </mxCell>
        <mxCell id="UxxSL7fzXN6poNYJw15S-1" value="" style="rounded=0;whiteSpace=wrap;html=1;" vertex="1" parent="UxxSL7fzXN6poNYJw15S-7">
          <mxGeometry width="880" height="450" as="geometry" />
        </mxCell>
        <mxCell id="UxxSL7fzXN6poNYJw15S-2" value="&lt;font style=&quot;font-size: 26px;&quot;&gt;KPI PANEL&lt;/font&gt;" style="rounded=1;whiteSpace=wrap;html=1;" vertex="1" parent="UxxSL7fzXN6poNYJw15S-7">
          <mxGeometry x="36.666666666666664" y="22.5" width="806.6666666666666" height="135" as="geometry" />
        </mxCell>
        <mxCell id="UxxSL7fzXN6poNYJw15S-3" value="" style="whiteSpace=wrap;html=1;aspect=fixed;" vertex="1" parent="UxxSL7fzXN6poNYJw15S-7">
          <mxGeometry x="36.670243902439026" y="202.5" width="188.69560975609758" height="188.69560975609758" as="geometry" />
        </mxCell>
        <mxCell id="UxxSL7fzXN6poNYJw15S-4" value="MODULO 2" style="whiteSpace=wrap;html=1;aspect=fixed;" vertex="1" parent="UxxSL7fzXN6poNYJw15S-7">
          <mxGeometry x="238.32975609756102" y="202.5" width="190.93853658536585" height="190.93853658536585" as="geometry" />
        </mxCell>
        <mxCell id="UxxSL7fzXN6poNYJw15S-6" value="MAPA" style="rounded=0;whiteSpace=wrap;html=1;" vertex="1" parent="UxxSL7fzXN6poNYJw15S-7">
          <mxGeometry x="440" y="202.5" width="403.33" height="187.5" as="geometry" />
        </mxCell>
        <mxCell id="UxxSL7fzXN6poNYJw15S-8" value="Diaria" style="labelPosition=center;verticalLabelPosition=middle;align=center;html=1;shape=mxgraph.basic.shaded_button;dx=10;fillColor=#E6E6E6;strokeColor=none;whiteSpace=wrap;" vertex="1" parent="UxxSL7fzXN6poNYJw15S-7">
          <mxGeometry x="36.670243902439054" y="202.5" width="96.25" height="64.28571428571429" as="geometry" />
        </mxCell>
        <mxCell id="UxxSL7fzXN6poNYJw15S-9" value="Mensual" style="labelPosition=center;verticalLabelPosition=middle;align=center;html=1;shape=mxgraph.basic.shaded_button;dx=10;fillColor=#E6E6E6;strokeColor=none;whiteSpace=wrap;" vertex="1" parent="UxxSL7fzXN6poNYJw15S-7">
          <mxGeometry x="36.670243902439054" y="291.9632142857143" width="96.25" height="64.28571428571429" as="geometry" />
        </mxCell>
        <mxCell id="UxxSL7fzXN6poNYJw15S-10" value="&lt;b&gt;&lt;font style=&quot;font-size: 17px;&quot;&gt;MODULO&lt;/font&gt;&lt;/b&gt;&lt;div&gt;&lt;b&gt;&lt;font style=&quot;font-size: 17px;&quot;&gt;PARA&amp;nbsp;&lt;/font&gt;&lt;/b&gt;&lt;/div&gt;&lt;div&gt;&lt;b&gt;&lt;font style=&quot;font-size: 17px;&quot;&gt;LA&lt;/font&gt;&lt;/b&gt;&lt;/div&gt;&lt;div&gt;&lt;b&gt;&lt;font style=&quot;font-size: 17px;&quot;&gt;SERIE&lt;/font&gt;&lt;/b&gt;&lt;/div&gt;&lt;div&gt;&lt;b&gt;&lt;font style=&quot;font-size: 17px;&quot;&gt;TEMPORAL&lt;/font&gt;&lt;/b&gt;&lt;/div&gt;" style="text;html=1;align=center;verticalAlign=middle;whiteSpace=wrap;rounded=0;" vertex="1" parent="UxxSL7fzXN6poNYJw15S-7">
          <mxGeometry x="150.2439024390244" y="258.21000000000004" width="64.39024390243902" height="33.75" as="geometry" />
        </mxCell>
      </root>
    </mxGraphModel>
  </diagram>
</mxfile>
